<svg width="48" height="23" viewBox="0 0 48 23" fill="none" xmlns="http://www.w3.org/2000/svg">
<path d="M1.49762 18.3131C1.28301 17.9954 0.996867 17.4878 0.820132 17.112C-0.210823 14.9112 -0.257111 12.6329 0.609733 10.4477C1.56494 8.04928 3.39121 6.21659 5.75188 5.27894C8.71851 4.10493 11.9965 4.33353 14.8411 5.88725C16.6463 6.8404 17.9256 8.31275 18.8976 10.3973C19.0196 10.6646 19.129 10.9475 19.2385 11.1916L1.49762 18.3131ZM7.42245 8.81645C5.31425 9.64949 4.2286 11.4706 4.45583 13.6016L13.3767 10.0641C11.8408 8.40574 9.84625 7.85555 7.42245 8.81645V8.81645ZM14.4876 16.5114C14.4834 16.5114 14.4834 16.5153 14.4834 16.5153L14.2983 16.3991C13.7639 17.1933 12.9349 17.8404 11.8871 18.2589C9.89254 19.057 8.04523 18.8517 6.71551 17.7784L6.59348 17.9489C6.59348 17.9489 6.59348 17.945 6.58927 17.945L4.32538 21.0641C4.88924 21.4244 5.49099 21.7266 6.12219 21.9707C8.62173 22.9278 11.1802 22.8813 13.7008 21.8739C15.5228 21.1454 16.9535 20.0373 17.9298 18.6308L14.4876 16.5114ZM25.4368 0.691406V18.0264L28.3656 19.119L26.7034 22.6914L23.4717 21.4515C22.7479 21.1609 22.2514 20.7192 21.8811 20.2194C21.5234 19.7118 21.2583 19.0105 21.2583 18.0729V0.691406H25.4368ZM33.0196 13.6132C33.0196 12.137 33.7307 10.8119 34.8501 9.91296L31.8456 6.82878C29.8089 8.48711 28.5255 10.9087 28.5255 13.6055C28.5213 16.3061 29.8047 18.7316 31.8371 20.3899L34.8374 17.3057C33.7223 16.4029 33.0196 15.0856 33.0196 13.6132V13.6132ZM38.3553 18.5301C37.7662 18.5301 37.1939 18.4371 36.6637 18.2744L35.2288 22.1993C36.2092 22.5015 37.257 22.6682 38.3511 22.6682C43.1061 22.672 47.0742 19.5646 47.9958 15.4381L43.5858 14.609C43.0851 16.8524 40.9348 18.534 38.3553 18.5301V18.5301ZM38.3679 4.55826C37.2781 4.55826 36.2303 4.72099 35.2498 5.01934L36.6721 8.94819C37.2065 8.78545 37.7746 8.69634 38.3637 8.69634C40.9474 8.70021 43.1019 10.3895 43.59 12.6368L48 11.8154C47.0953 7.68119 43.1272 4.56213 38.3679 4.55826V4.55826Z" fill="white"/>
</svg>
